<?xml version="1.0" encoding="UTF-8" standalone="no"?>
<svg width="95px" height="93px" viewBox="0 0 95 93" version="1.1" xmlns="http://www.w3.org/2000/svg" xmlns:xlink="http://www.w3.org/1999/xlink" xmlns:sketch="http://www.bohemiancoding.com/sketch/ns">
    <!-- Generator: Sketch 3.2 (9964) - http://www.bohemiancoding.com/sketch -->
    <title>benefits-3</title>
    <desc>Created with Sketch.</desc>
    <defs></defs>
    <g id="Page-1" stroke="none" stroke-width="1" fill="none" fill-rule="evenodd" sketch:type="MSPage">
        <g id="benefits-3" sketch:type="MSLayerGroup" transform="translate(-2.000000, -4.000000)">
            <g id="Group" transform="translate(4.000000, 6.000000)" stroke="#4DD865" stroke-width="4" sketch:type="MSShapeGroup">
                <path d="M37.038,34.5196 C34.98,35.6056 33.0708,36.9696 31.3664,38.5852 C29.8776,32.5224 14.79,22.8852 14.79,29.5204 L20.154,39.8088 C13.9036,40.9168 8.684,45.2628 6.628,51.0904 L2.3972,52.7768 C1.1792,53.1336 0.1304,53.7956 0.1304,55.0452 C1.3596,63.3548 0.6396,64.8572 3.6348,65.682 L9.5716,67.3008 C13.6552,72.214 20.2172,74.5776 26.6148,73.3836 L24.856,83.9464 C24.856,86.2024 26.6904,88.0364 28.9444,88.0364 C32.9448,88.0364 37.5696,88.656 37.5696,83.9464 L38.112,79.0736 C43.4704,82.2888 55.5064,81.7392 60.4796,79.1564 L61.1804,83.9464 C61.1804,86.2024 63.0148,88.0364 65.2724,88.0364 L68.0436,88.0364 C70.3012,88.0364 73.892,86.2024 73.892,83.9464 L72.1336,67.7744 C73.4472,65.3276 74.3172,62.6736 74.728,59.9464 C75.8076,49.1988 71.1384,40.9256 63.736,35.7756" id="Shape"></path>
                <circle id="Oval" cx="50.9148" cy="16.0844" r="15.9004"></circle>
                <path d="M74.1784,50.748 C78.8132,48.5764 85.4544,43.5428 84.2136,38.814 C82.6924,33.0172 74.492,31.8376 77.5932,40.7824 C80.4596,49.054 88.3108,45.596 90.4752,41.5956" id="Shape"></path>
                <path id="Shape"></path>
                <path d="M46.392,20.8284 C47.6016,21.8812 49.4664,22.6716 50.8128,22.6716 C52.9668,22.6716 54.7128,21.1448 54.7128,19.2616 C54.7128,17.3784 52.8484,16.4468 50.8128,15.8516 C48.7028,15.1904 46.9128,14.3248 46.9128,12.4416 C46.9128,10.5584 48.6588,9.0316 50.8128,9.0316 C52.2632,9.0316 53.5288,9.7236 54.2008,10.7508" id="Shape"></path>
                <path d="M50.8128,7.1684 L50.8128,9.0316" id="Shape"></path>
                <path d="M50.8128,22.6716 L50.8128,24.5352" id="Shape"></path>
            </g>
            <rect id="Rectangle-path" sketch:type="MSShapeGroup" x="0.9452" y="0.0124" width="96" height="96"></rect>
            <rect id="Rectangle-path" sketch:type="MSShapeGroup" x="0.9452" y="0" width="96" height="96"></rect>
        </g>
    </g>
</svg>